#!OML:ASF I:\Random Stuff\random\construction\7_22_03\Session 2\subj1.ASF
:FULLY-SPECIFIED
:DEGREES
711
root 3.81233 17.7336 -7.60226 19.0794 -30.3737 -3.96062
lowerback 10.2801 -0.719718 0.766926
upperback 3.91572 -0.897618 0.87075
thorax -1.68913 -0.464667 0.57263
lowerneck -22.0831 0.452196 -2.17201
upperneck 42.739 0.11837 2.01265
head 20.7715 -0.219214 1.38487
rclavicle 3.97569e-014 -7.95139e-016
rhumerus 24.4326 61.3416 -32.3902
rradius 68.7166
rwrist 17.5647
rhand -53.3112 55.8234
rfingers 7.12502
rthumb -25.7639 27.5477
lclavicle 3.97569e-014 -7.95139e-016
lhumerus -23.5325 -60.9858 107.585
lradius 80.6647
lwrist 66.874
lhand -24.993 70.2732
lfingers 7.12502
lthumb 1.51834 -460.248
rfemur -24.3794 4.09712 19.1224
rtibia 13.7056
rfoot -5.07557 -5.02556
rtoes -9.62973
lfemur -23.9242 -2.74391 -9.95246
ltibia 25.3521
lfoot -16.5766 12.3159
ltoes -31.1774
712
root 3.81135 17.7334 -7.59789 19.1168 -30.208 -4.01326
lowerback 10.2409 -0.727178 0.92207
upperback 3.9939 -0.896308 0.807113
thorax -1.58995 -0.46268 0.418181
lowerneck -22.1139 0.429866 -2.16099
upperneck 42.6819 0.087853 2.00988
head 20.7422 -0.226555 1.37391
rclavicle 1.19271e-014 -6.36111e-015
rhumerus 24.699 61.1629 -31.9121
rradius 69.029
rwrist 17.7923
rhand -53.0761 55.8144
rfingers 7.12502
rthumb -25.5387 27.5063
lclavicle 1.19271e-014 -6.36111e-015
lhumerus -23.3028 -61.2511 107.404
lradius 80.6736
lwrist 66.9363
lhand -25.1046 70.263
lfingers 7.12502
lthumb 1.41052 -460.238
rfemur -24.3834 4.00044 19.2131
rtibia 13.7724
rfoot -5.15737 -5.08582
rtoes -9.77131
lfemur -23.9817 -2.77094 -9.8699
ltibia 25.373
lfoot -16.5739 12.1817
ltoes -31.0299
713
root 3.81004 17.7342 -7.59159 19.0913 -30.0912 -3.99014
lowerback 10.2167 -0.721095 0.995115
upperback 4.04007 -0.884777 0.708895
thorax -1.53142 -0.455674 0.273538
lowerneck -22.0796 0.38505 -2.16889
upperneck 42.678 -0.021226 2.10152
head 20.7337 -0.255175 1.39688
rclavicle -1.59028e-014 7.95139e-016
rhumerus 24.9185 61.0675 -31.5883
rradius 69.1157
rwrist 17.7881
rhand -52.7515 56.0249
rfingers 7.12502
rthumb -25.2277 27.6725
lclavicle -1.59028e-014 7.95139e-016
lhumerus -23.2987 -61.5395 107.365
lradius 80.6746
lwrist 66.9225
lhand -25.0249 70.0858
lfingers 7.12502
lthumb 1.48748 -460.06
rfemur -24.3628 3.9772 19.2011
rtibia 13.8595
rfoot -5.23381 -5.21278
rtoes -9.93533
lfemur -23.9901 -2.85882 -9.87022
ltibia 25.3957
lfoot -16.6176 12.1437
ltoes -30.8591
714
root 3.80905 17.734 -7.58554 19.0274 -29.9812 -3.90995
lowerback 10.2359 -0.760693 0.926296
upperback 4.05015 -0.944233 0.664013
thorax -1.53141 -0.485342 0.272764
lowerneck -22.0206 0.368737 -2.23543
upperneck 42.7129 -0.0321047 2.12855
head 20.7407 -0.268068 1.42028
rclavicle -5.58585e-014 -1.11319e-014
rhumerus 25.4778 61.206 -30.9228
rradius 69.123
rwrist 17.5274
rhand -52.6904 56.5382
rfingers 7.12502
rthumb -25.1692 28.1776
lclavicle -5.58585e-014 -1.11319e-014
lhumerus -23.3851 -61.6311 107.424
lradius 80.6609
lwrist 66.8952
lhand -25.192 70.1964
lfingers 7.12502
lthumb 1.32609 -460.172
rfemur -24.354 3.9374 19.134
rtibia 13.9862
rfoot -5.3122 -5.34409
rtoes -9.99786
lfemur -23.9948 -3.02073 -9.9163
ltibia 25.4324
lfoot -16.6686 12.1733
ltoes -30.7862
715
root 3.80947 17.7314 -7.5813 18.9772 -29.8745 -3.84517
lowerback 10.2669 -0.794462 0.853748
upperback 4.04412 -0.995282 0.647105
thorax -1.55388 -0.511065 0.302402
lowerneck -21.9177 0.345285 -2.38204
upperneck 42.7099 -0.0226301 2.17005
head 20.7071 -0.283762 1.46909
rclavicle -1.15295e-014 -3.49861e-014
rhumerus 25.8009 61.2719 -30.5242
rradius 69.0592
rwrist 17.3948
rhand -52.609 57.278
rfingers 7.12502
rthumb -25.0912 28.9064
lclavicle -1.15295e-014 -3.49861e-014
lhumerus -23.4662 -61.7379 107.51
lradius 80.6073
lwrist 66.7449
lhand -25.2865 70.47
lfingers 7.12502
lthumb 1.23487 -460.446
rfemur -24.3749 3.72223 19.1374
rtibia 14.1177
rfoot -5.40116 -5.29978
rtoes -9.97251
lfemur -24.0295 -3.10259 -9.95637
ltibia 25.4888
lfoot -16.678 12.1333
ltoes -30.915
716
root 3.80986 17.7271 -7.57744 18.9623 -29.8306 -3.84742
lowerback 10.2794 -0.788375 0.829358
upperback 4.07185 -0.990381 0.629466
thorax -1.53186 -0.50875 0.297249
lowerneck -21.889 0.319665 -2.48114
upperneck 42.6914 -0.0247826 2.19165
head 20.6857 -0.297455 1.49702
rclavicle 1.33186e-014 2.66371e-014
rhumerus 25.6886 60.9815 -30.7623
rradius 68.8975
rwrist 17.6435
rhand -52.4162 58.4298
rfingers 7.12502
rthumb -24.9064 30.0326
lclavicle 1.33186e-014 2.66371e-014
lhumerus -23.3521 -61.9718 107.42
lradius 80.5518
lwrist 66.6835
lhand -25.2209 70.5567
lfingers 7.12502
lthumb 1.29822 -460.533
rfemur -24.3957 3.44351 19.2272
rtibia 14.2218
rfoot -5.49764 -5.10742
rtoes -10.0272
lfemur -24.058 -3.09599 -9.95762
ltibia 25.5634
lfoot -16.6577 12.1043
ltoes -31.2766
717
root 3.80987 17.7245 -7.57355 18.9772 -29.8192 -3.9079
lowerback 10.3044 -0.771767 0.817759
upperback 4.11565 -0.96981 0.653671
thorax -1.49952 -0.498987 0.326412
lowerneck -21.9996 0.329856 -2.60443
upperneck 42.739 0.0357678 2.23213
head 20.7493 -0.29029 1.55666
rclavicle -1.19271e-015 1.23246e-014
rhumerus 25.5806 60.4766 -31.1377
rradius 68.7272
rwrist 18.178
rhand -52.3105 59.9367
rfingers 7.12502
rthumb -24.8051 31.5255
lclavicle -1.19271e-015 1.23246e-014
lhumerus -23.1127 -62.2303 107.243
lradius 80.5197
lwrist 66.7767
lhand -25.2254 70.514
lfingers 7.12502
lthumb 1.29385 -460.49
rfemur -24.4141 3.30006 19.3279
rtibia 14.3203
rfoot -5.57586 -4.97589
rtoes -10.1661
lfemur -24.0683 -3.08025 -9.90715
ltibia 25.638
lfoot -16.7121 12.0713
ltoes -31.2209
718
root 3.8107 17.7233 -7.5697 18.997 -29.8246 -3.94749
lowerback 10.335 -0.754328 0.795806
upperback 4.13309 -0.948479 0.677881
thorax -1.49738 -0.488877 0.361649
lowerneck -22.1143 0.331459 -2.74108
upperneck 42.8089 0.0949125 2.25878
head 20.83 -0.288698 1.61204
rclavicle -3.04141e-014 3.61788e-014
rhumerus 25.746 60.0152 -31.2822
rradius 68.4756
rwrist 18.773
rhand -52.2539 61.7604
rfingers 7.12502
rthumb -24.7509 33.3417
lclavicle -3.04141e-014 3.61788e-014
lhumerus -22.9226 -62.5061 107.099
lradius 80.4935
lwrist 66.9254
lhand -25.6241 70.7614
lfingers 7.12502
lthumb 0.908813 -460.739
rfemur -24.4285 3.24729 19.3702
rtibia 14.3695
rfoot -5.59573 -4.9251
rtoes -10.2131
lfemur -24.0848 -3.03794 -9.88613
ltibia 25.6969
lfoot -16.6954 12.0529
ltoes -31.6868
719
root 3.81363 17.7216 -7.56608 18.9866 -29.8433 -3.91665
lowerback 10.3482 -0.723271 0.752233
upperback 4.15658 -0.912454 0.660788
thorax -1.47989 -0.471304 0.364348
lowerneck -22.197 0.268561 -2.82991
upperneck 42.8386 0.044806 2.25252
head 20.8788 -0.323299 1.6152
rclavicle -1.39149e-015 2.70347e-014
rhumerus 26.2081 59.5816 -31.1683
rradius 68.064
rwrist 19.2526
rhand -52.019 63.6466
rfingers 7.12502
rthumb -24.5258 35.1972
lclavicle -1.39149e-015 2.70347e-014
lhumerus -22.6985 -62.8859 106.877
lradius 80.5071
lwrist 67.2195
lhand -26.603 71.5014
lfingers 7.12502
lthumb -0.036663 -461.481
rfemur -24.4044 3.14996 19.3509
rtibia 14.3187
rfoot -5.56926 -4.85396
rtoes -10.187
lfemur -24.1032 -2.97118 -9.94584
ltibia 25.7311
lfoot -16.5028 12.069
ltoes -33.0855
